<?xml version="1.0" encoding="utf-8"?><!-- Generator: Adobe Illustrator 21.1.0, SVG Export Plug-In . SVG Version: 6.00 Build 0)  --><svg xmlns="http://www.w3.org/2000/svg" xmlns:xlink="http://www.w3.org/1999/xlink" viewBox="0 0 128 128" width="128px" height="128px"><style type="text/css">.st0{fill:#FFFFFF;}.st1{fill:#444B54;}.st2{fill:#00D6C6;}.st3{fill:#DFE8F4;}.st4{fill:#B58FA5;}.st5{fill:#B8C5D3;}.st6{fill:#FF5576;}.st7{fill:#FCCA3D;}.st8{fill:#E5A505;}.st9{fill:none;stroke:#444B54;stroke-width:6;stroke-linecap:round;stroke-linejoin:round;stroke-miterlimit:10;}.st10{fill:#FFA9BE;}.st11{fill:none;stroke:#C95065;stroke-width:6;stroke-linecap:round;stroke-linejoin:round;stroke-miterlimit:10;}</style><g><g><ellipse transform="matrix(0.7071 -0.7071 0.7071 0.7071 -26.5097 64)" class="st0" cx="64" cy="64" rx="55" ry="55"/></g><g><ellipse transform="matrix(0.7071 -0.7071 0.7071 0.7071 -26.5097 64)" class="st6" cx="64" cy="64" rx="40" ry="40"/></g><g><path class="st1" d="M64,122c-15.5,0-30.1-6-41-17C12,94.1,6,79.5,6,64s6-30.1,17-41c11-11,25.5-17,41-17s30.1,6,41,17l0,0l0,0    c11,11,17,25.5,17,41s-6,30.1-17,41C94.1,116,79.5,122,64,122z M64,12c-13.9,0-26.9,5.4-36.8,15.2S12,50.1,12,64    s5.4,26.9,15.2,36.8S50.1,116,64,116s26.9-5.4,36.8-15.2S116,77.9,116,64s-5.4-26.9-15.2-36.8l0,0C90.9,17.4,77.9,12,64,12z"/></g><g><path class="st0" d="M68.2,64l11.3-11.3c1.2-1.2,1.2-3.1,0-4.2c-1.2-1.2-3.1-1.2-4.2,0L64,59.8L52.7,48.4c-1.2-1.2-3.1-1.2-4.2,0    c-1.2,1.2-1.2,3.1,0,4.2L59.8,64L48.4,75.3c-1.2,1.2-1.2,3.1,0,4.2c0.6,0.6,1.4,0.9,2.1,0.9s1.5-0.3,2.1-0.9L64,68.2l11.3,11.3    c0.6,0.6,1.4,0.9,2.1,0.9s1.5-0.3,2.1-0.9c1.2-1.2,1.2-3.1,0-4.2L68.2,64z"/></g></g></svg>