<?xml version="1.0" encoding="iso-8859-1"?>
<!-- Generator: Adobe Illustrator 28.1.0, SVG Export Plug-In . SVG Version: 6.00 Build 0)  -->
<svg version="1.1" baseProfile="basic" id="Layer_1"
	 xmlns="http://www.w3.org/2000/svg" xmlns:xlink="http://www.w3.org/1999/xlink" x="0px" y="0px" viewBox="0 0 32 32"
	 xml:space="preserve">
<g>
	<linearGradient id="SVGID_1_" gradientUnits="userSpaceOnUse" x1="16" y1="2.8876" x2="16" y2="29.0118">
		<stop  offset="0" style="stop-color:#36EB69"/>
		<stop  offset="1" style="stop-color:#1BBD49"/>
	</linearGradient>
	<circle style="fill:url(#SVGID_1_);" cx="16" cy="16" r="13"/>
	<g>
		
			<linearGradient id="SVGID_00000178924791378684495160000008316151206143447953_" gradientUnits="userSpaceOnUse" x1="16" y1="3" x2="16" y2="29">
			<stop  offset="0" style="stop-color:#000000;stop-opacity:0.02"/>
			<stop  offset="1" style="stop-color:#000000;stop-opacity:0.15"/>
		</linearGradient>
		<path style="fill:url(#SVGID_00000178924791378684495160000008316151206143447953_);" d="M16,3.5c6.893,0,12.5,5.607,12.5,12.5
			S22.893,28.5,16,28.5S3.5,22.893,3.5,16S9.107,3.5,16,3.5 M16,3C8.82,3,3,8.82,3,16s5.82,13,13,13s13-5.82,13-13S23.18,3,16,3
			L16,3z"/>
	</g>
</g>
<g>
	<path style="fill:#FFFFFF;" d="M10.325,14.825L10.325,14.825c0.414-0.414,1.086-0.414,1.5,0L15,18l6.179-6.179
		c0.414-0.414,1.086-0.414,1.5,0l0,0c0.414,0.414,0.414,1.086,0,1.5l-6.813,6.813c-0.478,0.478-1.254,0.478-1.732,0l-3.809-3.809
		C9.911,15.911,9.911,15.239,10.325,14.825z"/>
	<g style="opacity:0.2;">
		
			<linearGradient id="SVGID_00000118388153516845112090000001655201925858474929_" gradientUnits="userSpaceOnUse" x1="16.5022" y1="11.0101" x2="16.5022" y2="20.9926">
			<stop  offset="0" style="stop-color:#000000;stop-opacity:0.1"/>
			<stop  offset="1" style="stop-color:#000000;stop-opacity:0.7"/>
		</linearGradient>
		<path style="fill:url(#SVGID_00000118388153516845112090000001655201925858474929_);" d="M21.929,11.51
			c0.271,0,0.543,0.104,0.75,0.311c0.414,0.414,0.414,1.086,0,1.5l-6.813,6.813c-0.239,0.239-0.553,0.359-0.866,0.359
			s-0.627-0.12-0.866-0.359l-3.809-3.809c-0.414-0.414-0.414-1.086,0-1.5v0c0.207-0.207,0.479-0.311,0.75-0.311
			s0.543,0.104,0.75,0.311L15,18l6.179-6.179C21.386,11.614,21.658,11.51,21.929,11.51 M21.929,11.01
			c-0.417,0-0.809,0.162-1.104,0.457L15,17.293l-2.821-2.821c-0.295-0.295-0.687-0.457-1.104-0.457s-0.809,0.162-1.104,0.457
			c-0.295,0.295-0.457,0.687-0.457,1.104s0.162,0.809,0.457,1.104l3.809,3.809c0.326,0.326,0.759,0.505,1.22,0.505
			s0.894-0.179,1.22-0.505l6.813-6.813c0.295-0.295,0.457-0.687,0.457-1.104c0-0.417-0.162-0.809-0.457-1.104
			C22.738,11.172,22.346,11.01,21.929,11.01L21.929,11.01z"/>
	</g>
</g>
</svg>